<svg width="846" height="197" viewBox="0 0 846 197" fill="none" xmlns="http://www.w3.org/2000/svg">
<path d="M75.8398 148.939H54.445C53.6662 148.929 52.8931 149.074 52.1722 149.368C51.4513 149.661 50.7974 150.095 50.2495 150.646C49.6942 151.183 49.2554 151.829 48.96 152.541C48.6647 153.254 48.519 154.019 48.5321 154.789V191.106C48.5353 191.873 48.386 192.633 48.0928 193.343C47.7995 194.052 47.3681 194.697 46.8233 195.241C46.2784 195.784 45.6309 196.216 44.9179 196.51C44.2048 196.804 43.4403 196.956 42.6682 196.956H5.86533C5.09266 196.974 4.32464 196.832 3.61058 196.538C2.89651 196.244 2.25216 195.805 1.71888 195.25C1.15997 194.714 0.718801 194.07 0.423201 193.357C0.127601 192.643 -0.0160142 191.877 0.00141638 191.106V24.4623C-0.0116091 23.6918 0.134018 22.9268 0.429359 22.2143C0.724699 21.5017 1.16352 20.8567 1.71888 20.3187C2.26215 19.7693 2.91179 19.3349 3.62864 19.0417C4.34549 18.7484 5.11469 18.6025 5.88987 18.6125H80.9185C89.6445 18.5644 98.2928 20.2422 106.359 23.548C114.426 26.8539 121.75 31.7218 127.903 37.8679C133.899 43.93 138.723 51.0352 142.134 58.8293C145.668 66.9019 147.465 75.6191 147.409 84.4218C147.469 93.0653 145.973 101.65 142.993 109.771C140.13 117.513 135.542 124.512 129.572 130.245C123.151 136.292 115.53 140.941 107.196 143.894C97.1336 147.433 86.512 149.142 75.8398 148.939ZM77.6308 63.4604H54.445C53.6662 63.4498 52.8931 63.5954 52.1722 63.8886C51.4513 64.1818 50.7974 64.6164 50.2495 65.1665C49.6925 65.6981 49.2523 66.3386 48.9567 67.0475C48.6611 67.7565 48.5166 68.5185 48.5321 69.2857V97.8031C48.5195 98.5699 48.6654 99.3311 48.9609 100.04C49.2563 100.748 49.6949 101.389 50.2495 101.922C50.7986 102.469 51.4533 102.9 52.1743 103.189C52.8953 103.478 53.6677 103.619 54.445 103.604H80.9185C87.1668 103.604 91.7304 101.63 94.6092 97.6812C96.7826 94.667 98.188 91.1744 98.7051 87.5024C99.2221 83.8305 98.8354 80.0888 97.578 76.5979C96.6971 74.1244 95.3104 71.8589 93.5051 69.9438C91.6216 67.9506 89.3625 66.344 86.8561 65.2153C83.9488 63.9618 80.7985 63.3625 77.6308 63.4604Z" fill="#FF2028"/>
<path d="M211.225 196.956H174.422C173.629 196.995 172.836 196.862 172.099 196.568C171.362 196.273 170.698 195.824 170.153 195.25C169.097 194.129 168.524 192.641 168.558 191.106V24.6328C168.532 23.099 169.103 21.6145 170.153 20.4893C170.701 19.9192 171.366 19.472 172.102 19.1777C172.838 18.8835 173.629 18.7489 174.422 18.7831H211.225C211.997 18.7831 212.762 18.9346 213.475 19.2289C214.188 19.5232 214.835 19.9544 215.38 20.4979C215.925 21.0415 216.356 21.6865 216.65 22.3961C216.943 23.1057 217.092 23.8658 217.089 24.6328V191.106C217.092 191.873 216.943 192.633 216.65 193.343C216.356 194.052 215.925 194.697 215.38 195.241C214.835 195.784 214.188 196.216 213.475 196.51C212.762 196.804 211.997 196.956 211.225 196.956Z" fill="#FF2028"/>
<path d="M391.044 196.956H252.174C251.402 196.959 250.637 196.811 249.923 196.519C249.208 196.228 248.559 195.799 248.012 195.258C247.465 194.717 247.031 194.074 246.735 193.365C246.438 192.657 246.286 191.897 246.286 191.13V163.88C246.327 162.029 246.744 160.205 247.513 158.518C248.2 156.786 249.107 155.148 250.211 153.643L325.289 70.1875C325.758 69.6156 326.089 68.9455 326.259 68.2278C326.429 67.5101 326.433 66.7634 326.271 66.044C326.117 65.3454 325.702 64.7307 325.11 64.3237C324.518 63.9166 323.793 63.7475 323.081 63.8503H252.174C251.398 63.8677 250.627 63.725 249.909 63.4313C249.191 63.1377 248.542 62.6994 248.003 62.1442C247.445 61.6034 247.004 60.9544 246.709 60.2374C246.413 59.5204 246.269 58.7508 246.286 57.9763V24.4623C246.269 23.6877 246.413 22.9181 246.709 22.2011C247.004 21.4841 247.445 20.8351 248.003 20.2943C248.54 19.7347 249.188 19.2919 249.906 18.994C250.624 18.6961 251.396 18.5496 252.174 18.5638H391.044C391.84 18.5324 392.634 18.6681 393.374 18.9621C394.113 19.256 394.783 19.7017 395.337 20.27C396.387 21.3951 396.958 22.8797 396.932 24.4135V51.9559C396.89 53.7946 396.516 55.6109 395.828 57.3182C395.244 59.0492 394.418 60.6901 393.374 62.1929L318.297 146.039C317.832 146.589 317.502 147.238 317.331 147.935C317.161 148.633 317.156 149.36 317.315 150.061C317.447 150.714 317.825 151.293 318.372 151.678C318.92 152.064 319.595 152.226 320.26 152.132H391.166C391.962 152.101 392.756 152.237 393.496 152.531C394.236 152.825 394.905 153.27 395.46 153.838C396.51 154.964 397.081 156.448 397.055 157.982V191.13C397.089 192.666 396.516 194.153 395.46 195.274C394.892 195.858 394.202 196.311 393.439 196.601C392.676 196.892 391.859 197.013 391.044 196.956Z" fill="#FF2028"/>
<path d="M564.998 196.956H426.129C425.357 196.959 424.592 196.811 423.877 196.519C423.163 196.228 422.514 195.799 421.967 195.258C421.419 194.717 420.985 194.074 420.689 193.365C420.393 192.657 420.24 191.897 420.24 191.13V163.88C420.282 162.029 420.699 160.205 421.467 158.518C422.155 156.786 423.062 155.148 424.166 153.643L499.244 70.1875C499.712 69.6156 500.044 68.9455 500.214 68.2278C500.384 67.5101 500.388 66.7634 500.225 66.044C500.071 65.3454 499.657 64.7307 499.065 64.3237C498.473 63.9166 497.748 63.7475 497.036 63.8503H426.129C425.353 63.8677 424.581 63.725 423.863 63.4313C423.146 63.1377 422.497 62.6994 421.958 62.1442C421.4 61.6034 420.959 60.9544 420.663 60.2374C420.368 59.5204 420.224 58.7508 420.24 57.9763V24.4623C420.224 23.6877 420.368 22.9181 420.663 22.2011C420.959 21.4841 421.4 20.8351 421.958 20.2943C422.495 19.7347 423.143 19.2919 423.86 18.994C424.578 18.6961 425.351 18.5496 426.129 18.5638H564.998C565.795 18.5308 566.589 18.6658 567.329 18.9599C568.069 19.254 568.738 19.7005 569.292 20.27C570.342 21.3951 570.913 22.8797 570.887 24.4135V51.9559C570.845 53.7946 570.471 55.6108 569.783 57.3182C569.16 59.0559 568.293 60.6972 567.206 62.1929L492.129 146.039C491.669 146.591 491.342 147.241 491.172 147.937C491.002 148.634 490.993 149.36 491.147 150.061C491.278 150.714 491.657 151.293 492.204 151.678C492.752 152.064 493.427 152.226 494.091 152.132H564.998C565.795 152.099 566.589 152.234 567.329 152.528C568.069 152.822 568.738 153.269 569.292 153.838C570.342 154.964 570.913 156.448 570.887 157.982V191.13C570.921 192.666 570.348 194.153 569.292 195.274C568.74 195.844 568.07 196.29 567.33 196.58C566.589 196.87 565.793 196.998 564.998 196.956Z" fill="#FF2028"/>
<path d="M648.173 24.1454C648.906 22.6077 650.052 21.3006 651.485 20.3674C652.958 19.3397 654.714 18.7867 656.515 18.7831H690.864C692.584 18.8114 694.255 19.3645 695.648 20.3674C697.081 21.3006 698.227 22.6077 698.96 24.1454L770.603 189.887C770.935 190.629 771.075 191.441 771.01 192.249C770.946 193.058 770.68 193.838 770.235 194.518C769.678 195.378 768.886 196.064 767.953 196.495C767.019 196.927 765.981 197.086 764.96 196.956H723.005C721.203 196.963 719.444 196.409 717.975 195.371C716.506 194.409 715.286 193.114 714.418 191.593L707.793 176.969C706.924 175.435 705.706 174.125 704.236 173.142C702.842 172.14 701.172 171.586 699.451 171.558H647.682C645.923 171.586 644.214 172.138 642.775 173.142C641.342 174.076 640.196 175.383 639.463 176.92L632.593 191.545C631.866 193.087 630.718 194.395 629.281 195.323C627.892 196.336 626.219 196.89 624.496 196.907H582.173C581.292 196.899 580.419 196.734 579.597 196.419C578.748 196.126 577.988 195.623 577.389 194.957C576.799 194.263 576.417 193.418 576.284 192.52C576.181 191.335 576.437 190.146 577.021 189.107L648.173 24.1454ZM662.648 130.171H684.485C685.165 130.233 685.849 130.12 686.473 129.842C687.096 129.565 687.636 129.133 688.042 128.587C688.402 128.017 688.582 127.353 688.561 126.68C688.539 126.007 688.316 125.356 687.92 124.809C686.284 120.763 684.321 116.01 682.031 110.551C679.741 105.091 677.615 100.013 675.652 95.3169C674.998 93.8545 674.262 93.1233 673.444 93.1233C672.626 93.1233 671.89 93.8545 671.236 95.3169L658.968 124.809C658.641 125.386 658.47 126.036 658.47 126.698C658.47 127.36 658.641 128.011 658.968 128.587C659.383 129.154 659.944 129.599 660.591 129.878C661.238 130.156 661.948 130.258 662.648 130.171Z" fill="#FF2028"/>
<path d="M776.688 42.377L772.615 32.8468C772.431 32.4193 772.089 32.0788 771.658 31.8963C771.441 31.8051 771.207 31.7581 770.971 31.7581C770.735 31.7581 770.502 31.8051 770.284 31.8963L736.009 46.3987C735.573 46.5571 735.095 46.5571 734.659 46.3987C734.429 46.3146 734.219 46.1816 734.045 46.0091C733.872 45.8365 733.738 45.6285 733.653 45.3993L729.31 35.2111C729.22 34.9948 729.174 34.7629 729.174 34.5286C729.174 34.2944 729.22 34.0625 729.31 33.8462C729.493 33.4123 729.835 33.0637 730.267 32.8712L764.494 18.4663C764.924 18.2838 765.267 17.9432 765.451 17.5157C765.554 17.2984 765.607 17.0612 765.607 16.8211C765.607 16.5809 765.554 16.3437 765.451 16.1264L761.329 6.37687C761.238 6.165 761.191 5.93699 761.191 5.70659C761.191 5.4762 761.238 5.24819 761.329 5.03631C761.505 4.59814 761.849 4.24745 762.286 4.06136L771.609 0.137177C771.823 0.0466636 772.052 0 772.284 0C772.516 0 772.745 0.0466636 772.959 0.137177C773.181 0.224197 773.382 0.355646 773.551 0.523363C773.72 0.691079 773.852 0.891482 773.94 1.11213L789.275 36.9904C789.377 37.2077 789.431 37.4449 789.431 37.685C789.431 37.9252 789.377 38.1624 789.275 38.3797C789.181 38.5913 789.047 38.7823 788.878 38.9414C788.71 39.1004 788.511 39.2244 788.293 39.3059L778.994 43.2301C778.781 43.3206 778.551 43.3673 778.32 43.3673C778.088 43.3673 777.858 43.3206 777.645 43.2301C777.225 43.0818 776.882 42.7753 776.688 42.377Z" fill="#FF2028"/>
<path d="M747.417 77.4265L743.05 67.2139C742.947 66.9966 742.894 66.7594 742.894 66.5193C742.894 66.2791 742.947 66.0419 743.05 65.8246C743.143 65.613 743.278 65.422 743.447 65.2629C743.615 65.1039 743.814 64.9799 744.032 64.8984L790.648 45.18C791.084 45.0215 791.562 45.0215 791.998 45.18C792.225 45.2656 792.43 45.3994 792.6 45.572C792.769 45.7446 792.899 45.9518 792.979 46.1793L797.347 56.3432C797.438 56.5551 797.485 56.7831 797.485 57.0135C797.485 57.2439 797.438 57.4719 797.347 57.6837C797.164 58.1176 796.822 58.4662 796.39 58.6587L749.773 78.3527C749.555 78.4439 749.322 78.4909 749.086 78.4909C748.85 78.4909 748.616 78.4439 748.399 78.3527C747.964 78.1812 747.612 77.8494 747.417 77.4265Z" fill="#FF2028"/>
<path d="M824.066 123.225L777.449 142.919C777.228 143.027 776.987 143.089 776.741 143.101C776.495 143.113 776.249 143.074 776.019 142.987C775.788 142.9 775.579 142.767 775.402 142.596C775.226 142.425 775.088 142.22 774.995 141.993L770.652 131.707C770.562 131.491 770.515 131.259 770.515 131.025C770.515 130.79 770.562 130.558 770.652 130.342C770.836 129.915 771.179 129.574 771.609 129.392L793.691 120.105C793.787 120.08 793.877 120.036 793.955 119.975C794.032 119.914 794.096 119.837 794.143 119.75C794.189 119.663 794.216 119.567 794.223 119.468C794.23 119.37 794.216 119.271 794.182 119.179C794.122 118.971 794.006 118.783 793.846 118.637C793.685 118.491 793.487 118.391 793.274 118.35L769.843 114.718C769.613 114.681 769.397 114.582 769.22 114.432C769.042 114.281 768.91 114.085 768.837 113.865C768.716 113.653 768.653 113.414 768.653 113.171C768.653 112.927 768.716 112.688 768.837 112.476L782.478 93.2208C782.599 93.0491 782.663 92.845 782.663 92.6358C782.663 92.4266 782.599 92.2225 782.478 92.0508C782.435 91.963 782.373 91.8852 782.298 91.8222C782.222 91.7593 782.135 91.7125 782.04 91.6851C781.945 91.6576 781.846 91.6499 781.748 91.6625C781.651 91.6751 781.557 91.7077 781.472 91.7583L759.391 101.045C759.17 101.153 758.929 101.215 758.683 101.227C758.437 101.239 758.191 101.2 757.961 101.113C757.73 101.026 757.521 100.893 757.345 100.722C757.168 100.551 757.03 100.345 756.937 100.119L752.594 89.9059C752.504 89.6896 752.457 89.4577 752.457 89.2235C752.457 88.9892 752.504 88.7573 752.594 88.541C752.778 88.1135 753.121 87.773 753.551 87.5904L800.168 67.8964C800.38 67.8 800.61 67.7501 800.843 67.7501C801.076 67.7501 801.306 67.8 801.518 67.8964C801.741 67.9754 801.944 68.1012 802.113 68.2652C802.282 68.4293 802.414 68.6277 802.499 68.847L806.547 78.304C806.744 78.8163 806.811 79.3686 806.744 79.9127C806.709 80.4339 806.54 80.9375 806.253 81.3751L792.538 102.605C792.421 102.779 792.347 102.977 792.322 103.185C792.296 103.392 792.32 103.602 792.391 103.799C792.478 103.975 792.61 104.126 792.773 104.237C792.937 104.348 793.126 104.415 793.323 104.433L818.202 109.307C818.736 109.446 819.231 109.704 819.649 110.063C820.088 110.389 820.442 110.816 820.68 111.306L824.728 120.788C824.825 120.998 824.875 121.226 824.875 121.458C824.875 121.689 824.825 121.918 824.728 122.128C824.659 122.565 824.421 122.958 824.066 123.225Z" fill="#FF2028"/>
<path d="M821.882 152.693L819.011 153.912C818.791 153.991 818.592 154.117 818.426 154.281C818.261 154.445 818.134 154.644 818.054 154.862C817.957 155.077 817.906 155.309 817.906 155.545C817.906 155.78 817.957 156.013 818.054 156.227L825.906 174.654C825.997 174.866 826.044 175.094 826.044 175.324C826.044 175.554 825.997 175.782 825.906 175.994C825.729 176.432 825.385 176.783 824.949 176.969L815.503 180.942C815.285 181.032 815.051 181.078 814.816 181.078C814.58 181.078 814.346 181.032 814.129 180.942C813.698 180.76 813.356 180.419 813.172 179.992L805.296 161.565C805.211 161.346 805.079 161.147 804.91 160.983C804.74 160.819 804.537 160.693 804.315 160.614C804.103 160.518 803.873 160.468 803.64 160.468C803.407 160.468 803.177 160.518 802.965 160.614L800.364 161.687C799.922 161.872 799.569 162.222 799.383 162.662C799.293 162.878 799.246 163.11 799.246 163.344C799.246 163.578 799.293 163.81 799.383 164.027L808.486 185.329C808.576 185.546 808.623 185.778 808.623 186.012C808.623 186.246 808.576 186.478 808.486 186.694C808.302 187.122 807.959 187.462 807.529 187.645L798.083 191.642C797.867 191.739 797.633 191.789 797.396 191.789C797.159 191.789 796.925 191.739 796.709 191.642C796.489 191.563 796.289 191.437 796.124 191.273C795.958 191.108 795.831 190.91 795.752 190.692L781.031 156.105C780.94 155.889 780.894 155.657 780.894 155.423C780.894 155.189 780.94 154.957 781.031 154.74C781.12 154.523 781.253 154.327 781.422 154.163C781.591 154 781.792 153.873 782.012 153.79L828.801 134.047C829.018 133.956 829.252 133.909 829.488 133.909C829.724 133.909 829.957 133.956 830.175 134.047C830.605 134.229 830.948 134.57 831.132 134.997L845.853 169.608C845.95 169.819 846 170.047 846 170.279C846 170.51 845.95 170.739 845.853 170.949C845.773 171.17 845.647 171.372 845.481 171.54C845.316 171.708 845.117 171.839 844.896 171.924L835.597 175.848C835.379 175.938 835.146 175.984 834.91 175.984C834.674 175.984 834.441 175.938 834.223 175.848C834.008 175.761 833.812 175.632 833.648 175.469C833.484 175.306 833.354 175.111 833.266 174.897L824.335 153.643C824.142 153.214 823.791 152.874 823.354 152.693C823.123 152.589 822.872 152.536 822.618 152.536C822.364 152.536 822.113 152.589 821.882 152.693Z" fill="#FF2028"/>
</svg>
